<svg width="342" height="274" viewBox="0 0 342 274" fill="none" xmlns="http://www.w3.org/2000/svg">
<g filter="url(#filter0_bdd_153_18704)">
<g clip-path="url(#clip0_153_18704)">
<rect x="27.3613" y="23.2275" width="287.28" height="238.545" rx="10.6875" fill="white"/>
<rect x="48.7363" y="44.6025" width="244.53" height="397.844" rx="10.6875" fill="white"/>
<path d="M52.0563 61.6026C52.0563 54.0474 58.1811 47.9226 65.7363 47.9226C73.2916 47.9226 79.4163 54.0474 79.4163 61.6026C79.4163 69.1579 73.2916 75.2826 65.7363 75.2826C58.1811 75.2826 52.0563 69.1579 52.0563 61.6026Z" fill="#002147"/>
<path d="M64.8813 71.0075L68.6694 67.6217C71.844 64.7842 73.4313 63.3655 73.4313 61.6025C73.4313 59.8395 71.844 58.4208 68.6694 55.5833L64.8813 52.1975C70.6836 57.3879 70.688 65.8105 64.8813 71.0075Z" fill="#0171DF"/>
<path d="M61.4614 71.0075L65.2494 67.6217C68.4241 64.7842 70.0114 63.3655 70.0114 61.6025C70.0114 59.8395 68.4241 58.4208 65.2494 55.5833L61.4614 52.1975C67.2636 57.3879 67.268 65.8105 61.4614 71.0075Z" fill="#0171DF"/>
<path d="M58.0413 71.0075L61.8294 67.6217C65.004 64.7842 66.5913 63.3655 66.5913 61.6025C66.5913 59.8395 65.004 58.4208 61.8294 55.5833L58.0413 52.1975C63.8436 57.3879 63.848 65.8105 58.0413 71.0075Z" fill="#0171DF"/>
<rect width="244.53" height="62.4969" transform="translate(48.7363 100.177)" fill="white"/>
<rect width="244.53" height="51.275" transform="translate(48.7363 100.177)" fill="white"/>
<path d="M53.5226 115.331C52.6813 115.331 51.8759 115.213 51.1064 114.977C50.3369 114.731 49.7264 114.418 49.275 114.039L49.9675 112.484C50.3984 112.823 50.932 113.105 51.5681 113.331C52.2042 113.556 52.8557 113.669 53.5226 113.669C54.0869 113.669 54.5435 113.608 54.8923 113.485C55.2412 113.361 55.4977 113.197 55.6618 112.992C55.826 112.777 55.9081 112.536 55.9081 112.269C55.9081 111.94 55.7901 111.679 55.5541 111.484C55.3181 111.279 55.0103 111.12 54.6307 111.007C54.2613 110.884 53.8458 110.771 53.3841 110.668C52.9327 110.566 52.4761 110.448 52.0144 110.314C51.563 110.171 51.1474 109.991 50.7678 109.776C50.3984 109.55 50.0958 109.252 49.8598 108.883C49.6238 108.514 49.5058 108.042 49.5058 107.467C49.5058 106.882 49.6597 106.349 49.9675 105.867C50.2856 105.374 50.7627 104.984 51.3988 104.697C52.0452 104.399 52.8608 104.251 53.8458 104.251C54.4922 104.251 55.1334 104.333 55.7696 104.497C56.4057 104.661 56.9597 104.897 57.4317 105.205L56.8007 106.759C56.3185 106.472 55.8209 106.262 55.3079 106.128C54.7949 105.985 54.3024 105.913 53.8304 105.913C53.2764 105.913 52.8249 105.979 52.4761 106.113C52.1375 106.246 51.8861 106.421 51.722 106.636C51.5681 106.852 51.4911 107.098 51.4911 107.375C51.4911 107.703 51.604 107.97 51.8297 108.175C52.0657 108.37 52.3684 108.524 52.7377 108.637C53.1173 108.75 53.538 108.862 53.9997 108.975C54.4614 109.078 54.918 109.196 55.3694 109.329C55.8311 109.463 56.2466 109.637 56.616 109.853C56.9956 110.068 57.2983 110.36 57.524 110.73C57.76 111.099 57.878 111.566 57.878 112.13C57.878 112.705 57.719 113.238 57.4009 113.731C57.0931 114.213 56.616 114.603 55.9696 114.9C55.3232 115.188 54.5076 115.331 53.5226 115.331ZM59.6772 115.177V106.959H61.6009V115.177H59.6772ZM60.6467 105.605C60.2876 105.605 59.9901 105.492 59.7541 105.266C59.5284 105.041 59.4155 104.769 59.4155 104.451C59.4155 104.122 59.5284 103.85 59.7541 103.635C59.9901 103.409 60.2876 103.296 60.6467 103.296C61.0058 103.296 61.2983 103.404 61.524 103.62C61.76 103.825 61.8779 104.086 61.8779 104.404C61.8779 104.743 61.7651 105.03 61.5394 105.266C61.3136 105.492 61.0161 105.605 60.6467 105.605ZM67.8502 118.271C67.091 118.271 66.3471 118.168 65.6187 117.963C64.9005 117.768 64.3105 117.481 63.8488 117.101L64.7107 115.655C65.0698 115.952 65.5212 116.188 66.065 116.363C66.619 116.547 67.1782 116.64 67.7425 116.64C68.6454 116.64 69.3071 116.429 69.7278 116.009C70.1485 115.598 70.3588 114.977 70.3588 114.146V112.684L70.5127 110.822L70.4511 108.96V106.959H72.2825V113.931C72.2825 115.419 71.9029 116.511 71.1437 117.209C70.3844 117.917 69.2866 118.271 67.8502 118.271ZM67.604 114.808C66.8242 114.808 66.1163 114.644 65.4802 114.316C64.8543 113.977 64.3567 113.51 63.9873 112.915C63.6282 112.32 63.4487 111.622 63.4487 110.822C63.4487 110.032 63.6282 109.34 63.9873 108.744C64.3567 108.149 64.8543 107.688 65.4802 107.359C66.1163 107.031 66.8242 106.867 67.604 106.867C68.3017 106.867 68.9275 107.005 69.4816 107.282C70.0356 107.559 70.4768 107.99 70.8051 108.575C71.1437 109.16 71.313 109.909 71.313 110.822C71.313 111.735 71.1437 112.489 70.8051 113.084C70.4768 113.669 70.0356 114.105 69.4816 114.393C68.9275 114.67 68.3017 114.808 67.604 114.808ZM67.8964 113.177C68.3786 113.177 68.8095 113.079 69.1892 112.884C69.5688 112.679 69.8612 112.402 70.0664 112.053C70.2818 111.694 70.3896 111.284 70.3896 110.822C70.3896 110.36 70.2818 109.955 70.0664 109.606C69.8612 109.247 69.5688 108.975 69.1892 108.791C68.8095 108.596 68.3786 108.498 67.8964 108.498C67.4142 108.498 66.9781 108.596 66.5882 108.791C66.2086 108.975 65.9111 109.247 65.6956 109.606C65.4904 109.955 65.3878 110.36 65.3878 110.822C65.3878 111.284 65.4904 111.694 65.6956 112.053C65.9111 112.402 66.2086 112.679 66.5882 112.884C66.9781 113.079 67.4142 113.177 67.8964 113.177ZM79.4748 106.867C80.1315 106.867 80.7163 106.995 81.2293 107.252C81.7526 107.508 82.163 107.903 82.4605 108.437C82.758 108.96 82.9068 109.637 82.9068 110.468V115.177H80.9831V110.714C80.9831 109.986 80.8086 109.442 80.4598 109.083C80.1212 108.724 79.6441 108.544 79.0285 108.544C78.5771 108.544 78.177 108.637 77.8281 108.821C77.4793 109.006 77.2074 109.283 77.0124 109.652C76.8278 110.012 76.7354 110.468 76.7354 111.022V115.177H74.8117V106.959H76.6431V109.175L76.3199 108.498C76.6072 107.975 77.0227 107.575 77.5665 107.298C78.1205 107.011 78.7566 106.867 79.4748 106.867ZM94.4176 115.331C92.9401 115.331 91.7807 114.916 90.9394 114.085C90.1084 113.254 89.6928 112.053 89.6928 110.484V104.404H91.6935V110.407C91.6935 111.515 91.9295 112.32 92.4015 112.823C92.8837 113.326 93.5609 113.577 94.433 113.577C95.3051 113.577 95.9771 113.326 96.449 112.823C96.921 112.32 97.157 111.515 97.157 110.407V104.404H99.1269V110.484C99.1269 112.053 98.7062 113.254 97.8649 114.085C97.0339 114.916 95.8847 115.331 94.4176 115.331ZM106.3 115.285C105.633 115.285 105.022 115.131 104.468 114.824C103.924 114.516 103.488 114.054 103.16 113.438C102.842 112.813 102.683 112.023 102.683 111.068C102.683 110.104 102.837 109.314 103.145 108.698C103.463 108.083 103.894 107.626 104.437 107.329C104.981 107.021 105.602 106.867 106.3 106.867C107.11 106.867 107.823 107.041 108.439 107.39C109.065 107.739 109.557 108.226 109.916 108.852C110.286 109.478 110.47 110.217 110.47 111.068C110.47 111.92 110.286 112.664 109.916 113.3C109.557 113.926 109.065 114.413 108.439 114.762C107.823 115.111 107.11 115.285 106.3 115.285ZM101.744 118.163V106.959H103.576V108.898L103.514 111.084L103.668 113.269V118.163H101.744ZM106.084 113.638C106.546 113.638 106.956 113.536 107.315 113.331C107.685 113.125 107.977 112.828 108.193 112.438C108.408 112.048 108.516 111.592 108.516 111.068C108.516 110.535 108.408 110.078 108.193 109.699C107.977 109.309 107.685 109.011 107.315 108.806C106.956 108.601 106.546 108.498 106.084 108.498C105.622 108.498 105.207 108.601 104.838 108.806C104.468 109.011 104.176 109.309 103.96 109.699C103.745 110.078 103.637 110.535 103.637 111.068C103.637 111.592 103.745 112.048 103.96 112.438C104.176 112.828 104.468 113.125 104.838 113.331C105.207 113.536 105.622 113.638 106.084 113.638Z" fill="#002147"/>
<path d="M50.5831 130.482H54.3793V131.128H50.5831V130.482ZM50.6652 133.796H54.9847V134.452H49.906V127.27H54.8308V127.927H50.6652V133.796ZM59.3651 129.015C59.8029 129.015 60.1859 129.1 60.5142 129.271C60.8494 129.435 61.1093 129.688 61.294 130.03C61.4855 130.372 61.5813 130.803 61.5813 131.323V134.452H60.8528V131.395C60.8528 130.827 60.7092 130.4 60.4219 130.112C60.1415 129.818 59.7447 129.671 59.2317 129.671C58.8487 129.671 58.5135 129.75 58.2263 129.907C57.9458 130.058 57.7269 130.28 57.5696 130.574C57.4191 130.861 57.3439 131.21 57.3439 131.621V134.452H56.6154V129.066H57.3131V130.543L57.2003 130.266C57.3713 129.876 57.6449 129.572 58.0211 129.353C58.3973 129.127 58.8453 129.015 59.3651 129.015ZM65.2521 134.504C64.746 134.504 64.3561 134.367 64.0825 134.093C63.8089 133.82 63.6721 133.433 63.6721 132.934V127.876H64.4005V132.893C64.4005 133.208 64.4792 133.45 64.6365 133.621C64.8007 133.792 65.0332 133.878 65.3342 133.878C65.6557 133.878 65.9224 133.785 66.1345 133.601L66.391 134.124C66.2473 134.254 66.0729 134.35 65.8677 134.411C65.6694 134.473 65.4642 134.504 65.2521 134.504ZM62.7076 129.671V129.066H66.0421V129.671H62.7076ZM69.8147 134.504C69.2538 134.504 68.7613 134.387 68.3373 134.155C67.9132 133.915 67.5814 133.591 67.342 133.18C67.1026 132.763 66.9829 132.288 66.9829 131.754C66.9829 131.22 67.0958 130.749 67.3215 130.338C67.5541 129.928 67.8687 129.606 68.2654 129.374C68.669 129.134 69.1204 129.015 69.6198 129.015C70.1259 129.015 70.5739 129.131 70.9638 129.363C71.3605 129.589 71.6718 129.911 71.8975 130.328C72.1232 130.738 72.2361 131.214 72.2361 131.754C72.2361 131.788 72.2326 131.826 72.2258 131.867C72.2258 131.901 72.2258 131.939 72.2258 131.98H67.537V131.436H71.8359L71.5486 131.651C71.5486 131.262 71.4631 130.916 71.2921 130.615C71.128 130.307 70.9023 130.068 70.615 129.897C70.3277 129.726 69.996 129.64 69.6198 129.64C69.2504 129.64 68.9187 129.726 68.6245 129.897C68.3304 130.068 68.1013 130.307 67.9371 130.615C67.773 130.923 67.6909 131.275 67.6909 131.672V131.785C67.6909 132.195 67.7798 132.558 67.9576 132.872C68.1423 133.18 68.3954 133.423 68.7169 133.601C69.0452 133.772 69.418 133.857 69.8352 133.857C70.1635 133.857 70.4679 133.799 70.7484 133.683C71.0356 133.567 71.2819 133.389 71.4871 133.149L71.8975 133.621C71.6581 133.909 71.3571 134.127 70.9946 134.278C70.6389 134.428 70.2456 134.504 69.8147 134.504ZM73.7188 134.452V129.066H74.4165V130.533L74.3446 130.277C74.4951 129.866 74.7482 129.555 75.1039 129.343C75.4596 129.124 75.9007 129.015 76.4274 129.015V129.723C76.4001 129.723 76.3727 129.723 76.3453 129.723C76.318 129.716 76.2906 129.712 76.2633 129.712C75.6955 129.712 75.2509 129.887 74.9295 130.236C74.608 130.578 74.4472 131.067 74.4472 131.703V134.452H73.7188ZM82.2252 134.504C81.719 134.504 81.3292 134.367 81.0556 134.093C80.782 133.82 80.6452 133.433 80.6452 132.934V127.876H81.3736V132.893C81.3736 133.208 81.4523 133.45 81.6096 133.621C81.7738 133.792 82.0063 133.878 82.3073 133.878C82.6288 133.878 82.8955 133.785 83.1076 133.601L83.3641 134.124C83.2204 134.254 83.046 134.35 82.8408 134.411C82.6424 134.473 82.4372 134.504 82.2252 134.504ZM79.6807 129.671V129.066H83.0152V129.671H79.6807ZM87.4399 129.015C87.8776 129.015 88.2607 129.1 88.589 129.271C88.9241 129.435 89.1841 129.688 89.3687 130.03C89.5603 130.372 89.656 130.803 89.656 131.323V134.452H88.9276V131.395C88.9276 130.827 88.7839 130.4 88.4966 130.112C88.2162 129.818 87.8195 129.671 87.3065 129.671C86.9234 129.671 86.5883 129.75 86.301 129.907C86.0206 130.058 85.8017 130.28 85.6444 130.574C85.4939 130.861 85.4186 131.21 85.4186 131.621V134.452H84.6902V126.839H85.4186V130.543L85.275 130.266C85.446 129.876 85.7196 129.572 86.0958 129.353C86.472 129.127 86.92 129.015 87.4399 129.015ZM93.9117 134.504C93.3508 134.504 92.8583 134.387 92.4342 134.155C92.0101 133.915 91.6784 133.591 91.439 133.18C91.1996 132.763 91.0799 132.288 91.0799 131.754C91.0799 131.22 91.1928 130.749 91.4185 130.338C91.651 129.928 91.9657 129.606 92.3624 129.374C92.766 129.134 93.2174 129.015 93.7167 129.015C94.2229 129.015 94.6709 129.131 95.0608 129.363C95.4575 129.589 95.7687 129.911 95.9944 130.328C96.2202 130.738 96.333 131.214 96.333 131.754C96.333 131.788 96.3296 131.826 96.3228 131.867C96.3228 131.901 96.3228 131.939 96.3228 131.98H91.6339V131.436H95.9329L95.6456 131.651C95.6456 131.262 95.5601 130.916 95.3891 130.615C95.2249 130.307 94.9992 130.068 94.7119 129.897C94.4247 129.726 94.0929 129.64 93.7167 129.64C93.3474 129.64 93.0156 129.726 92.7215 129.897C92.4274 130.068 92.1982 130.307 92.0341 130.615C91.8699 130.923 91.7878 131.275 91.7878 131.672V131.785C91.7878 132.195 91.8768 132.558 92.0546 132.872C92.2393 133.18 92.4924 133.423 92.8138 133.601C93.1422 133.772 93.5149 133.857 93.9322 133.857C94.2605 133.857 94.5649 133.799 94.8453 133.683C95.1326 133.567 95.3788 133.389 95.584 133.149L95.9944 133.621C95.755 133.909 95.4541 134.127 95.0916 134.278C94.7359 134.428 94.3426 134.504 93.9117 134.504ZM100.624 134.452V128.389C100.624 127.91 100.764 127.523 101.045 127.229C101.325 126.935 101.729 126.788 102.255 126.788C102.461 126.788 102.659 126.816 102.851 126.87C103.042 126.925 103.203 127.01 103.333 127.127L103.087 127.671C102.984 127.582 102.864 127.517 102.727 127.476C102.591 127.428 102.444 127.404 102.286 127.404C101.978 127.404 101.742 127.489 101.578 127.66C101.414 127.831 101.332 128.084 101.332 128.42V129.24L101.353 129.579V134.452H100.624ZM99.6597 129.671V129.066H102.994V129.671H99.6597ZM106.083 134.504C105.563 134.504 105.095 134.387 104.678 134.155C104.267 133.915 103.942 133.591 103.703 133.18C103.464 132.763 103.344 132.288 103.344 131.754C103.344 131.214 103.464 130.738 103.703 130.328C103.942 129.917 104.267 129.596 104.678 129.363C105.088 129.131 105.557 129.015 106.083 129.015C106.617 129.015 107.089 129.131 107.499 129.363C107.916 129.596 108.241 129.917 108.474 130.328C108.713 130.738 108.833 131.214 108.833 131.754C108.833 132.288 108.713 132.763 108.474 133.18C108.241 133.591 107.916 133.915 107.499 134.155C107.082 134.387 106.61 134.504 106.083 134.504ZM106.083 133.857C106.473 133.857 106.819 133.772 107.119 133.601C107.42 133.423 107.656 133.177 107.827 132.862C108.005 132.541 108.094 132.171 108.094 131.754C108.094 131.33 108.005 130.961 107.827 130.646C107.656 130.331 107.42 130.088 107.119 129.917C106.819 129.74 106.477 129.651 106.093 129.651C105.71 129.651 105.368 129.74 105.067 129.917C104.767 130.088 104.527 130.331 104.349 130.646C104.171 130.961 104.083 131.33 104.083 131.754C104.083 132.171 104.171 132.541 104.349 132.862C104.527 133.177 104.767 133.423 105.067 133.601C105.368 133.772 105.707 133.857 106.083 133.857ZM110.32 134.452V126.839H111.049V134.452H110.32ZM113.076 134.452V126.839H113.804V134.452H113.076ZM118.027 134.504C117.507 134.504 117.038 134.387 116.621 134.155C116.21 133.915 115.886 133.591 115.646 133.18C115.407 132.763 115.287 132.288 115.287 131.754C115.287 131.214 115.407 130.738 115.646 130.328C115.886 129.917 116.21 129.596 116.621 129.363C117.031 129.131 117.5 129.015 118.027 129.015C118.56 129.015 119.032 129.131 119.442 129.363C119.86 129.596 120.185 129.917 120.417 130.328C120.656 130.738 120.776 131.214 120.776 131.754C120.776 132.288 120.656 132.763 120.417 133.18C120.185 133.591 119.86 133.915 119.442 134.155C119.025 134.387 118.553 134.504 118.027 134.504ZM118.027 133.857C118.416 133.857 118.762 133.772 119.063 133.601C119.364 133.423 119.6 133.177 119.771 132.862C119.949 132.541 120.037 132.171 120.037 131.754C120.037 131.33 119.949 130.961 119.771 130.646C119.6 130.331 119.364 130.088 119.063 129.917C118.762 129.74 118.42 129.651 118.037 129.651C117.654 129.651 117.312 129.74 117.011 129.917C116.71 130.088 116.47 130.331 116.293 130.646C116.115 130.961 116.026 131.33 116.026 131.754C116.026 132.171 116.115 132.541 116.293 132.862C116.47 133.177 116.71 133.423 117.011 133.601C117.312 133.772 117.65 133.857 118.027 133.857ZM123.211 134.452L121.179 129.066H121.877L123.724 134.063H123.406L125.304 129.066H125.93L127.807 134.063H127.489L129.367 129.066H130.034L127.992 134.452H127.305L125.499 129.753H125.714L123.898 134.452H123.211ZM131.131 134.452V129.066H131.859V134.452H131.131ZM131.5 127.876C131.35 127.876 131.223 127.824 131.12 127.722C131.018 127.619 130.967 127.496 130.967 127.352C130.967 127.209 131.018 127.089 131.12 126.993C131.223 126.891 131.35 126.839 131.5 126.839C131.651 126.839 131.777 126.887 131.88 126.983C131.982 127.079 132.034 127.199 132.034 127.342C132.034 127.493 131.982 127.619 131.88 127.722C131.784 127.824 131.657 127.876 131.5 127.876ZM136.636 129.015C137.074 129.015 137.457 129.1 137.785 129.271C138.12 129.435 138.38 129.688 138.565 130.03C138.756 130.372 138.852 130.803 138.852 131.323V134.452H138.123V131.395C138.123 130.827 137.98 130.4 137.693 130.112C137.412 129.818 137.015 129.671 136.502 129.671C136.119 129.671 135.784 129.75 135.497 129.907C135.216 130.058 134.998 130.28 134.84 130.574C134.69 130.861 134.615 131.21 134.615 131.621V134.452H133.886V129.066H134.584V130.543L134.471 130.266C134.642 129.876 134.915 129.572 135.292 129.353C135.668 129.127 136.116 129.015 136.636 129.015ZM143.118 136.494C142.625 136.494 142.153 136.422 141.702 136.279C141.251 136.135 140.885 135.93 140.604 135.663L140.973 135.109C141.227 135.335 141.538 135.513 141.907 135.643C142.283 135.779 142.68 135.848 143.097 135.848C143.781 135.848 144.284 135.687 144.606 135.366C144.927 135.051 145.088 134.558 145.088 133.888V132.544L145.19 131.621L145.119 130.697V129.066H145.816V133.796C145.816 134.726 145.587 135.407 145.129 135.837C144.677 136.275 144.007 136.494 143.118 136.494ZM142.984 134.247C142.471 134.247 142.01 134.138 141.599 133.919C141.189 133.693 140.864 133.382 140.625 132.985C140.392 132.588 140.276 132.134 140.276 131.621C140.276 131.108 140.392 130.656 140.625 130.266C140.864 129.87 141.189 129.562 141.599 129.343C142.01 129.124 142.471 129.015 142.984 129.015C143.463 129.015 143.894 129.114 144.277 129.312C144.66 129.51 144.965 129.805 145.19 130.194C145.416 130.584 145.529 131.06 145.529 131.621C145.529 132.182 145.416 132.657 145.19 133.047C144.965 133.437 144.66 133.734 144.277 133.939C143.894 134.145 143.463 134.247 142.984 134.247ZM143.056 133.601C143.453 133.601 143.805 133.519 144.113 133.355C144.421 133.184 144.664 132.951 144.842 132.657C145.019 132.356 145.108 132.011 145.108 131.621C145.108 131.231 145.019 130.889 144.842 130.595C144.664 130.301 144.421 130.071 144.113 129.907C143.805 129.736 143.453 129.651 143.056 129.651C142.666 129.651 142.314 129.736 141.999 129.907C141.692 130.071 141.449 130.301 141.271 130.595C141.1 130.889 141.015 131.231 141.015 131.621C141.015 132.011 141.1 132.356 141.271 132.657C141.449 132.951 141.692 133.184 141.999 133.355C142.314 133.519 142.666 133.601 143.056 133.601ZM152.673 134.504C152.16 134.504 151.698 134.387 151.288 134.155C150.884 133.922 150.566 133.601 150.334 133.19C150.101 132.773 149.985 132.294 149.985 131.754C149.985 131.207 150.101 130.728 150.334 130.318C150.566 129.907 150.884 129.589 151.288 129.363C151.698 129.131 152.16 129.015 152.673 129.015C153.145 129.015 153.565 129.121 153.935 129.333C154.311 129.545 154.609 129.856 154.827 130.266C155.053 130.67 155.166 131.166 155.166 131.754C155.166 132.335 155.057 132.831 154.838 133.242C154.619 133.652 154.321 133.967 153.945 134.186C153.576 134.398 153.152 134.504 152.673 134.504ZM152.724 133.857C153.107 133.857 153.449 133.772 153.75 133.601C154.058 133.423 154.297 133.177 154.468 132.862C154.646 132.541 154.735 132.171 154.735 131.754C154.735 131.33 154.646 130.961 154.468 130.646C154.297 130.331 154.058 130.088 153.75 129.917C153.449 129.74 153.107 129.651 152.724 129.651C152.348 129.651 152.009 129.74 151.708 129.917C151.407 130.088 151.168 130.331 150.99 130.646C150.812 130.961 150.723 131.33 150.723 131.754C150.723 132.171 150.812 132.541 150.99 132.862C151.168 133.177 151.407 133.423 151.708 133.601C152.009 133.772 152.348 133.857 152.724 133.857ZM154.756 134.452V132.831L154.827 131.744L154.725 130.656V126.839H155.453V134.452H154.756ZM159.77 134.504C159.209 134.504 158.717 134.387 158.293 134.155C157.869 133.915 157.537 133.591 157.297 133.18C157.058 132.763 156.938 132.288 156.938 131.754C156.938 131.22 157.051 130.749 157.277 130.338C157.509 129.928 157.824 129.606 158.221 129.374C158.624 129.134 159.076 129.015 159.575 129.015C160.081 129.015 160.529 129.131 160.919 129.363C161.316 129.589 161.627 129.911 161.853 130.328C162.079 130.738 162.191 131.214 162.191 131.754C162.191 131.788 162.188 131.826 162.181 131.867C162.181 131.901 162.181 131.939 162.181 131.98H157.492V131.436H161.791L161.504 131.651C161.504 131.262 161.418 130.916 161.247 130.615C161.083 130.307 160.858 130.068 160.57 129.897C160.283 129.726 159.951 129.64 159.575 129.64C159.206 129.64 158.874 129.726 158.58 129.897C158.286 130.068 158.057 130.307 157.892 130.615C157.728 130.923 157.646 131.275 157.646 131.672V131.785C157.646 132.195 157.735 132.558 157.913 132.872C158.098 133.18 158.351 133.423 158.672 133.601C159.001 133.772 159.373 133.857 159.791 133.857C160.119 133.857 160.423 133.799 160.704 133.683C160.991 133.567 161.237 133.389 161.442 133.149L161.853 133.621C161.613 133.909 161.312 134.127 160.95 134.278C160.594 134.428 160.201 134.504 159.77 134.504ZM165.377 134.504C164.871 134.504 164.481 134.367 164.208 134.093C163.934 133.82 163.797 133.433 163.797 132.934V127.876H164.526V132.893C164.526 133.208 164.604 133.45 164.762 133.621C164.926 133.792 165.158 133.878 165.459 133.878C165.781 133.878 166.048 133.785 166.26 133.601L166.516 134.124C166.373 134.254 166.198 134.35 165.993 134.411C165.795 134.473 165.589 134.504 165.377 134.504ZM162.833 129.671V129.066H166.167V129.671H162.833ZM171.218 134.452V133.262L171.187 133.067V131.077C171.187 130.619 171.057 130.266 170.797 130.02C170.544 129.774 170.164 129.651 169.658 129.651C169.309 129.651 168.978 129.709 168.663 129.825C168.348 129.941 168.082 130.095 167.863 130.287L167.534 129.743C167.808 129.51 168.136 129.333 168.519 129.21C168.902 129.08 169.306 129.015 169.73 129.015C170.428 129.015 170.965 129.189 171.341 129.538C171.724 129.88 171.915 130.403 171.915 131.108V134.452H171.218ZM169.361 134.504C168.957 134.504 168.605 134.439 168.304 134.309C168.01 134.172 167.784 133.987 167.627 133.755C167.469 133.515 167.391 133.242 167.391 132.934C167.391 132.653 167.456 132.4 167.586 132.175C167.723 131.942 167.941 131.757 168.242 131.621C168.55 131.477 168.961 131.405 169.474 131.405H171.331V131.949H169.494C168.974 131.949 168.612 132.041 168.407 132.226C168.208 132.411 168.109 132.64 168.109 132.913C168.109 133.221 168.229 133.467 168.468 133.652C168.708 133.837 169.043 133.929 169.474 133.929C169.884 133.929 170.236 133.837 170.53 133.652C170.831 133.461 171.05 133.187 171.187 132.831L171.351 133.334C171.214 133.69 170.975 133.974 170.633 134.186C170.298 134.398 169.874 134.504 169.361 134.504ZM173.894 134.452V129.066H174.623V134.452H173.894ZM174.263 127.876C174.113 127.876 173.986 127.824 173.884 127.722C173.781 127.619 173.73 127.496 173.73 127.352C173.73 127.209 173.781 127.089 173.884 126.993C173.986 126.891 174.113 126.839 174.263 126.839C174.414 126.839 174.54 126.887 174.643 126.983C174.746 127.079 174.797 127.199 174.797 127.342C174.797 127.493 174.746 127.619 174.643 127.722C174.547 127.824 174.421 127.876 174.263 127.876ZM176.649 134.452V126.839H177.378V134.452H176.649ZM180.851 134.504C180.407 134.504 179.986 134.442 179.589 134.319C179.193 134.189 178.882 134.028 178.656 133.837L178.984 133.262C179.203 133.426 179.483 133.57 179.825 133.693C180.167 133.809 180.527 133.868 180.903 133.868C181.416 133.868 181.785 133.789 182.011 133.632C182.237 133.467 182.349 133.252 182.349 132.985C182.349 132.787 182.284 132.633 182.154 132.524C182.031 132.407 181.867 132.322 181.662 132.267C181.457 132.205 181.228 132.154 180.975 132.113C180.721 132.072 180.468 132.024 180.215 131.969C179.969 131.915 179.743 131.836 179.538 131.733C179.333 131.624 179.165 131.477 179.035 131.292C178.912 131.108 178.851 130.861 178.851 130.554C178.851 130.259 178.933 129.996 179.097 129.764C179.261 129.531 179.501 129.35 179.815 129.22C180.137 129.083 180.527 129.015 180.985 129.015C181.334 129.015 181.683 129.062 182.031 129.158C182.38 129.247 182.667 129.367 182.893 129.517L182.575 130.102C182.336 129.938 182.079 129.822 181.806 129.753C181.532 129.678 181.258 129.64 180.985 129.64C180.499 129.64 180.14 129.726 179.908 129.897C179.682 130.061 179.569 130.273 179.569 130.533C179.569 130.738 179.631 130.899 179.754 131.015C179.884 131.132 180.051 131.224 180.256 131.292C180.468 131.354 180.698 131.405 180.944 131.446C181.197 131.487 181.447 131.539 181.693 131.6C181.946 131.655 182.175 131.733 182.38 131.836C182.592 131.932 182.76 132.072 182.883 132.257C183.013 132.435 183.078 132.671 183.078 132.965C183.078 133.279 182.989 133.553 182.811 133.785C182.64 134.011 182.387 134.189 182.052 134.319C181.724 134.442 181.323 134.504 180.851 134.504ZM188.803 134.504C188.297 134.504 187.907 134.367 187.633 134.093C187.36 133.82 187.223 133.433 187.223 132.934V127.876H187.951V132.893C187.951 133.208 188.03 133.45 188.187 133.621C188.352 133.792 188.584 133.878 188.885 133.878C189.207 133.878 189.473 133.785 189.685 133.601L189.942 134.124C189.798 134.254 189.624 134.35 189.419 134.411C189.22 134.473 189.015 134.504 188.803 134.504ZM186.258 129.671V129.066H189.593V129.671H186.258ZM193.273 134.504C192.753 134.504 192.285 134.387 191.868 134.155C191.457 133.915 191.132 133.591 190.893 133.18C190.653 132.763 190.534 132.288 190.534 131.754C190.534 131.214 190.653 130.738 190.893 130.328C191.132 129.917 191.457 129.596 191.868 129.363C192.278 129.131 192.746 129.015 193.273 129.015C193.807 129.015 194.279 129.131 194.689 129.363C195.106 129.596 195.431 129.917 195.664 130.328C195.903 130.738 196.023 131.214 196.023 131.754C196.023 132.288 195.903 132.763 195.664 133.18C195.431 133.591 195.106 133.915 194.689 134.155C194.272 134.387 193.8 134.504 193.273 134.504ZM193.273 133.857C193.663 133.857 194.008 133.772 194.309 133.601C194.61 133.423 194.846 133.177 195.017 132.862C195.195 132.541 195.284 132.171 195.284 131.754C195.284 131.33 195.195 130.961 195.017 130.646C194.846 130.331 194.61 130.088 194.309 129.917C194.008 129.74 193.666 129.651 193.283 129.651C192.9 129.651 192.558 129.74 192.257 129.917C191.956 130.088 191.717 130.331 191.539 130.646C191.361 130.961 191.272 131.33 191.272 131.754C191.272 132.171 191.361 132.541 191.539 132.862C191.717 133.177 191.956 133.423 192.257 133.601C192.558 133.772 192.897 133.857 193.273 133.857ZM202.432 134.504C201.898 134.504 201.42 134.387 200.996 134.155C200.578 133.915 200.25 133.591 200.011 133.18C199.771 132.763 199.652 132.288 199.652 131.754C199.652 131.214 199.771 130.738 200.011 130.328C200.25 129.917 200.578 129.596 200.996 129.363C201.42 129.131 201.898 129.015 202.432 129.015C202.89 129.015 203.304 129.104 203.673 129.281C204.043 129.459 204.334 129.726 204.546 130.082L204.002 130.451C203.817 130.177 203.588 129.976 203.314 129.846C203.041 129.716 202.743 129.651 202.422 129.651C202.039 129.651 201.693 129.74 201.385 129.917C201.078 130.088 200.835 130.331 200.657 130.646C200.479 130.961 200.39 131.33 200.39 131.754C200.39 132.178 200.479 132.547 200.657 132.862C200.835 133.177 201.078 133.423 201.385 133.601C201.693 133.772 202.039 133.857 202.422 133.857C202.743 133.857 203.041 133.792 203.314 133.662C203.588 133.532 203.817 133.334 204.002 133.067L204.546 133.437C204.334 133.785 204.043 134.052 203.673 134.237C203.304 134.415 202.89 134.504 202.432 134.504ZM205.977 134.452V129.066H206.674V130.533L206.602 130.277C206.753 129.866 207.006 129.555 207.362 129.343C207.717 129.124 208.159 129.015 208.685 129.015V129.723C208.658 129.723 208.631 129.723 208.603 129.723C208.576 129.716 208.548 129.712 208.521 129.712C207.953 129.712 207.509 129.887 207.187 130.236C206.866 130.578 206.705 131.067 206.705 131.703V134.452H205.977ZM212.252 134.504C211.691 134.504 211.199 134.387 210.775 134.155C210.351 133.915 210.019 133.591 209.78 133.18C209.54 132.763 209.421 132.288 209.421 131.754C209.421 131.22 209.533 130.749 209.759 130.338C209.992 129.928 210.306 129.606 210.703 129.374C211.107 129.134 211.558 129.015 212.057 129.015C212.564 129.015 213.012 129.131 213.401 129.363C213.798 129.589 214.109 129.911 214.335 130.328C214.561 130.738 214.674 131.214 214.674 131.754C214.674 131.788 214.67 131.826 214.663 131.867C214.663 131.901 214.663 131.939 214.663 131.98H209.975V131.436H214.274L213.986 131.651C213.986 131.262 213.901 130.916 213.73 130.615C213.566 130.307 213.34 130.068 213.053 129.897C212.765 129.726 212.434 129.64 212.057 129.64C211.688 129.64 211.356 129.726 211.062 129.897C210.768 130.068 210.539 130.307 210.375 130.615C210.211 130.923 210.129 131.275 210.129 131.672V131.785C210.129 132.195 210.217 132.558 210.395 132.872C210.58 133.18 210.833 133.423 211.155 133.601C211.483 133.772 211.856 133.857 212.273 133.857C212.601 133.857 212.906 133.799 213.186 133.683C213.473 133.567 213.72 133.389 213.925 133.149L214.335 133.621C214.096 133.909 213.795 134.127 213.432 134.278C213.077 134.428 212.683 134.504 212.252 134.504ZM219.382 134.452V133.262L219.351 133.067V131.077C219.351 130.619 219.221 130.266 218.961 130.02C218.708 129.774 218.328 129.651 217.822 129.651C217.473 129.651 217.142 129.709 216.827 129.825C216.512 129.941 216.246 130.095 216.027 130.287L215.698 129.743C215.972 129.51 216.3 129.333 216.683 129.21C217.066 129.08 217.47 129.015 217.894 129.015C218.592 129.015 219.129 129.189 219.505 129.538C219.888 129.88 220.079 130.403 220.079 131.108V134.452H219.382ZM217.525 134.504C217.121 134.504 216.769 134.439 216.468 134.309C216.174 134.172 215.948 133.987 215.791 133.755C215.633 133.515 215.555 133.242 215.555 132.934C215.555 132.653 215.62 132.4 215.75 132.175C215.886 131.942 216.105 131.757 216.406 131.621C216.714 131.477 217.124 131.405 217.637 131.405H219.495V131.949H217.658C217.138 131.949 216.776 132.041 216.57 132.226C216.372 132.411 216.273 132.64 216.273 132.913C216.273 133.221 216.393 133.467 216.632 133.652C216.871 133.837 217.207 133.929 217.637 133.929C218.048 133.929 218.4 133.837 218.694 133.652C218.995 133.461 219.214 133.187 219.351 132.831L219.515 133.334C219.378 133.69 219.139 133.974 218.797 134.186C218.462 134.398 218.038 134.504 217.525 134.504ZM223.761 134.504C223.255 134.504 222.865 134.367 222.591 134.093C222.318 133.82 222.181 133.433 222.181 132.934V127.876H222.91V132.893C222.91 133.208 222.988 133.45 223.145 133.621C223.31 133.792 223.542 133.878 223.843 133.878C224.165 133.878 224.431 133.785 224.643 133.601L224.9 134.124C224.756 134.254 224.582 134.35 224.377 134.411C224.178 134.473 223.973 134.504 223.761 134.504ZM221.217 129.671V129.066H224.551V129.671H221.217ZM228.324 134.504C227.763 134.504 227.27 134.387 226.846 134.155C226.422 133.915 226.09 133.591 225.851 133.18C225.612 132.763 225.492 132.288 225.492 131.754C225.492 131.22 225.605 130.749 225.83 130.338C226.063 129.928 226.378 129.606 226.774 129.374C227.178 129.134 227.629 129.015 228.129 129.015C228.635 129.015 229.083 129.131 229.473 129.363C229.87 129.589 230.181 129.911 230.406 130.328C230.632 130.738 230.745 131.214 230.745 131.754C230.745 131.788 230.742 131.826 230.735 131.867C230.735 131.901 230.735 131.939 230.735 131.98H226.046V131.436H230.345L230.058 131.651C230.058 131.262 229.972 130.916 229.801 130.615C229.637 130.307 229.411 130.068 229.124 129.897C228.837 129.726 228.505 129.64 228.129 129.64C227.759 129.64 227.428 129.726 227.134 129.897C226.839 130.068 226.61 130.307 226.446 130.615C226.282 130.923 226.2 131.275 226.2 131.672V131.785C226.2 132.195 226.289 132.558 226.467 132.872C226.651 133.18 226.904 133.423 227.226 133.601C227.554 133.772 227.927 133.857 228.344 133.857C228.673 133.857 228.977 133.799 229.257 133.683C229.545 133.567 229.791 133.389 229.996 133.149L230.406 133.621C230.167 133.909 229.866 134.127 229.504 134.278C229.148 134.428 228.755 134.504 228.324 134.504ZM234.954 136.494C234.701 136.494 234.458 136.453 234.226 136.371C234 136.289 233.805 136.166 233.641 136.002L233.979 135.458C234.116 135.588 234.263 135.687 234.421 135.755C234.585 135.831 234.766 135.868 234.964 135.868C235.204 135.868 235.409 135.8 235.58 135.663C235.758 135.533 235.925 135.301 236.083 134.965L236.431 134.175L236.514 134.063L238.73 129.066H239.448L236.75 135.099C236.599 135.448 236.431 135.725 236.247 135.93C236.069 136.135 235.874 136.279 235.662 136.361C235.45 136.45 235.214 136.494 234.954 136.494ZM236.39 134.606L233.908 129.066H234.667L236.862 134.011L236.39 134.606ZM242.519 134.504C241.999 134.504 241.531 134.387 241.114 134.155C240.703 133.915 240.378 133.591 240.139 133.18C239.899 132.763 239.78 132.288 239.78 131.754C239.78 131.214 239.899 130.738 240.139 130.328C240.378 129.917 240.703 129.596 241.114 129.363C241.524 129.131 241.993 129.015 242.519 129.015C243.053 129.015 243.525 129.131 243.935 129.363C244.352 129.596 244.677 129.917 244.91 130.328C245.149 130.738 245.269 131.214 245.269 131.754C245.269 132.288 245.149 132.763 244.91 133.18C244.677 133.591 244.352 133.915 243.935 134.155C243.518 134.387 243.046 134.504 242.519 134.504ZM242.519 133.857C242.909 133.857 243.254 133.772 243.555 133.601C243.856 133.423 244.092 133.177 244.263 132.862C244.441 132.541 244.53 132.171 244.53 131.754C244.53 131.33 244.441 130.961 244.263 130.646C244.092 130.331 243.856 130.088 243.555 129.917C243.254 129.74 242.912 129.651 242.529 129.651C242.146 129.651 241.804 129.74 241.503 129.917C241.202 130.088 240.963 130.331 240.785 130.646C240.607 130.961 240.518 131.33 240.518 131.754C240.518 132.171 240.607 132.541 240.785 132.862C240.963 133.177 241.202 133.423 241.503 133.601C241.804 133.772 242.143 133.857 242.519 133.857ZM248.983 134.504C248.524 134.504 248.124 134.418 247.782 134.247C247.44 134.076 247.173 133.82 246.982 133.478C246.797 133.136 246.705 132.708 246.705 132.195V129.066H247.433V132.113C247.433 132.688 247.573 133.122 247.854 133.416C248.141 133.703 248.541 133.847 249.054 133.847C249.431 133.847 249.755 133.772 250.029 133.621C250.309 133.464 250.522 133.238 250.665 132.944C250.816 132.65 250.891 132.298 250.891 131.887V129.066H251.619V134.452H250.922V132.975L251.035 133.242C250.864 133.638 250.597 133.95 250.234 134.175C249.879 134.394 249.461 134.504 248.983 134.504ZM253.65 134.452V129.066H254.347V130.533L254.275 130.277C254.426 129.866 254.679 129.555 255.035 129.343C255.39 129.124 255.831 129.015 256.358 129.015V129.723C256.331 129.723 256.303 129.723 256.276 129.723C256.249 129.716 256.221 129.712 256.194 129.712C255.626 129.712 255.182 129.887 254.86 130.236C254.539 130.578 254.378 131.067 254.378 131.703V134.452H253.65ZM53.1276 148.452V147.262L53.0968 147.067V145.077C53.0968 144.619 52.9669 144.266 52.7069 144.02C52.4539 143.774 52.0742 143.651 51.5681 143.651C51.2192 143.651 50.8875 143.709 50.5729 143.825C50.2582 143.941 49.9915 144.095 49.7726 144.287L49.4443 143.743C49.7179 143.51 50.0462 143.333 50.4292 143.21C50.8123 143.08 51.2158 143.015 51.6399 143.015C52.3376 143.015 52.8745 143.189 53.2507 143.538C53.6338 143.88 53.8253 144.403 53.8253 145.108V148.452H53.1276ZM51.2705 148.504C50.867 148.504 50.5147 148.439 50.2138 148.309C49.9196 148.172 49.6939 147.987 49.5366 147.755C49.3793 147.515 49.3006 147.242 49.3006 146.934C49.3006 146.653 49.3656 146.4 49.4956 146.175C49.6324 145.942 49.8512 145.757 50.1522 145.621C50.46 145.477 50.8704 145.405 51.3834 145.405H53.2405V145.949H51.4039C50.8841 145.949 50.5216 146.041 50.3164 146.226C50.118 146.411 50.0188 146.64 50.0188 146.913C50.0188 147.221 50.1385 147.467 50.3779 147.652C50.6173 147.837 50.9525 147.929 51.3834 147.929C51.7938 147.929 52.1461 147.837 52.4402 147.652C52.7411 147.461 52.96 147.187 53.0968 146.831L53.261 147.334C53.1242 147.69 52.8848 147.974 52.5428 148.186C52.2076 148.398 51.7835 148.504 51.2705 148.504ZM58.0405 148.504C57.507 148.504 57.0282 148.387 56.6041 148.155C56.1869 147.915 55.8586 147.591 55.6192 147.18C55.3798 146.763 55.2601 146.288 55.2601 145.754C55.2601 145.214 55.3798 144.738 55.6192 144.328C55.8586 143.917 56.1869 143.596 56.6041 143.363C57.0282 143.131 57.507 143.015 58.0405 143.015C58.4988 143.015 58.9126 143.104 59.282 143.281C59.6514 143.459 59.9421 143.726 60.1541 144.082L59.6103 144.451C59.4256 144.177 59.1965 143.976 58.9229 143.846C58.6493 143.716 58.3518 143.651 58.0303 143.651C57.6472 143.651 57.3018 143.74 56.994 143.917C56.6862 144.088 56.4434 144.331 56.2656 144.646C56.0877 144.961 55.9988 145.33 55.9988 145.754C55.9988 146.178 56.0877 146.547 56.2656 146.862C56.4434 147.177 56.6862 147.423 56.994 147.601C57.3018 147.772 57.6472 147.857 58.0303 147.857C58.3518 147.857 58.6493 147.792 58.9229 147.662C59.1965 147.532 59.4256 147.334 59.6103 147.067L60.1541 147.437C59.9421 147.785 59.6514 148.052 59.282 148.237C58.9126 148.415 58.4988 148.504 58.0405 148.504ZM63.7316 148.504C63.1981 148.504 62.7193 148.387 62.2952 148.155C61.878 147.915 61.5497 147.591 61.3103 147.18C61.0709 146.763 60.9512 146.288 60.9512 145.754C60.9512 145.214 61.0709 144.738 61.3103 144.328C61.5497 143.917 61.878 143.596 62.2952 143.363C62.7193 143.131 63.1981 143.015 63.7316 143.015C64.1899 143.015 64.6037 143.104 64.9731 143.281C65.3425 143.459 65.6332 143.726 65.8452 144.082L65.3014 144.451C65.1167 144.177 64.8876 143.976 64.614 143.846C64.3404 143.716 64.0429 143.651 63.7214 143.651C63.3383 143.651 62.9929 143.74 62.6851 143.917C62.3773 144.088 62.1345 144.331 61.9567 144.646C61.7788 144.961 61.6899 145.33 61.6899 145.754C61.6899 146.178 61.7788 146.547 61.9567 146.862C62.1345 147.177 62.3773 147.423 62.6851 147.601C62.9929 147.772 63.3383 147.857 63.7214 147.857C64.0429 147.857 64.3404 147.792 64.614 147.662C64.8876 147.532 65.1167 147.334 65.3014 147.067L65.8452 147.437C65.6332 147.785 65.3425 148.052 64.9731 148.237C64.6037 148.415 64.1899 148.504 63.7316 148.504ZM69.3817 148.504C68.8619 148.504 68.3933 148.387 67.9761 148.155C67.5657 147.915 67.2408 147.591 67.0014 147.18C66.762 146.763 66.6423 146.288 66.6423 145.754C66.6423 145.214 66.762 144.738 67.0014 144.328C67.2408 143.917 67.5657 143.596 67.9761 143.363C68.3865 143.131 68.855 143.015 69.3817 143.015C69.9152 143.015 70.3872 143.131 70.7976 143.363C71.2148 143.596 71.5397 143.917 71.7723 144.328C72.0117 144.738 72.1314 145.214 72.1314 145.754C72.1314 146.288 72.0117 146.763 71.7723 147.18C71.5397 147.591 71.2148 147.915 70.7976 148.155C70.3803 148.387 69.9084 148.504 69.3817 148.504ZM69.3817 147.857C69.7716 147.857 70.117 147.772 70.418 147.601C70.7189 147.423 70.9549 147.177 71.1259 146.862C71.3037 146.541 71.3927 146.171 71.3927 145.754C71.3927 145.33 71.3037 144.961 71.1259 144.646C70.9549 144.331 70.7189 144.088 70.418 143.917C70.117 143.74 69.775 143.651 69.392 143.651C69.0089 143.651 68.6669 143.74 68.366 143.917C68.065 144.088 67.8256 144.331 67.6478 144.646C67.4699 144.961 67.381 145.33 67.381 145.754C67.381 146.171 67.4699 146.541 67.6478 146.862C67.8256 147.177 68.065 147.423 68.366 147.601C68.6669 147.772 69.0055 147.857 69.3817 147.857ZM75.845 148.504C75.3867 148.504 74.9866 148.418 74.6446 148.247C74.3026 148.076 74.0358 147.82 73.8443 147.478C73.6596 147.136 73.5673 146.708 73.5673 146.195V143.066H74.2957V146.113C74.2957 146.688 74.436 147.122 74.7164 147.416C75.0037 147.703 75.4038 147.847 75.9168 147.847C76.293 147.847 76.6179 147.772 76.8915 147.621C77.172 147.464 77.384 147.238 77.5276 146.944C77.6781 146.65 77.7534 146.298 77.7534 145.887V143.066H78.4818V148.452H77.7841V146.975L77.897 147.242C77.726 147.638 77.4592 147.95 77.0967 148.175C76.741 148.394 76.3238 148.504 75.845 148.504ZM83.2617 143.015C83.6995 143.015 84.0825 143.1 84.4108 143.271C84.746 143.435 85.0059 143.688 85.1906 144.03C85.3821 144.372 85.4779 144.803 85.4779 145.323V148.452H84.7494V145.395C84.7494 144.827 84.6058 144.4 84.3185 144.112C84.038 143.818 83.6413 143.671 83.1283 143.671C82.7453 143.671 82.4101 143.75 82.1228 143.907C81.8424 144.058 81.6235 144.28 81.4662 144.574C81.3157 144.861 81.2405 145.21 81.2405 145.621V148.452H80.512V143.066H81.2097V144.543L81.0968 144.266C81.2678 143.876 81.5414 143.572 81.9176 143.353C82.2938 143.127 82.7419 143.015 83.2617 143.015ZM89.1487 148.504C88.6425 148.504 88.2527 148.367 87.9791 148.093C87.7055 147.82 87.5687 147.433 87.5687 146.934V141.876H88.2971V146.893C88.2971 147.208 88.3758 147.45 88.5331 147.621C88.6973 147.792 88.9298 147.878 89.2308 147.878C89.5523 147.878 89.819 147.785 90.0311 147.601L90.2876 148.124C90.1439 148.254 89.9695 148.35 89.7643 148.411C89.5659 148.473 89.3607 148.504 89.1487 148.504ZM86.6042 143.671V143.066H89.9387V143.671H86.6042ZM97.6744 148.452V147.262L97.6437 147.067V145.077C97.6437 144.619 97.5137 144.266 97.2538 144.02C97.0007 143.774 96.6211 143.651 96.1149 143.651C95.7661 143.651 95.4343 143.709 95.1197 143.825C94.8051 143.941 94.5383 144.095 94.3194 144.287L93.9911 143.743C94.2647 143.51 94.593 143.333 94.9761 143.21C95.3591 143.08 95.7627 143.015 96.1867 143.015C96.8844 143.015 97.4214 143.189 97.7976 143.538C98.1806 143.88 98.3721 144.403 98.3721 145.108V148.452H97.6744ZM95.8174 148.504C95.4138 148.504 95.0616 148.439 94.7606 148.309C94.4665 148.172 94.2408 147.987 94.0834 147.755C93.9261 147.515 93.8475 147.242 93.8475 146.934C93.8475 146.653 93.9124 146.4 94.0424 146.175C94.1792 145.942 94.3981 145.757 94.699 145.621C95.0068 145.477 95.4172 145.405 95.9302 145.405H97.7873V145.949H95.9508C95.4309 145.949 95.0684 146.041 94.8632 146.226C94.6648 146.411 94.5657 146.64 94.5657 146.913C94.5657 147.221 94.6854 147.467 94.9248 147.652C95.1642 147.837 95.4993 147.929 95.9302 147.929C96.3406 147.929 96.6929 147.837 96.987 147.652C97.288 147.461 97.5069 147.187 97.6437 146.831L97.8078 147.334C97.671 147.69 97.4316 147.974 97.0896 148.186C96.7545 148.398 96.3304 148.504 95.8174 148.504ZM103.1 143.015C103.538 143.015 103.921 143.1 104.249 143.271C104.585 143.435 104.845 143.688 105.029 144.03C105.221 144.372 105.317 144.803 105.317 145.323V148.452H104.588V145.395C104.588 144.827 104.444 144.4 104.157 144.112C103.877 143.818 103.48 143.671 102.967 143.671C102.584 143.671 102.249 143.75 101.962 143.907C101.681 144.058 101.462 144.28 101.305 144.574C101.154 144.861 101.079 145.21 101.079 145.621V148.452H100.351V143.066H101.048V144.543L100.936 144.266C101.107 143.876 101.38 143.572 101.756 143.353C102.133 143.127 102.581 143.015 103.1 143.015ZM109.429 148.504C108.916 148.504 108.454 148.387 108.043 148.155C107.64 147.922 107.322 147.601 107.089 147.19C106.857 146.773 106.74 146.294 106.74 145.754C106.74 145.207 106.857 144.728 107.089 144.318C107.322 143.907 107.64 143.589 108.043 143.363C108.454 143.131 108.916 143.015 109.429 143.015C109.901 143.015 110.321 143.121 110.691 143.333C111.067 143.545 111.364 143.856 111.583 144.266C111.809 144.67 111.922 145.166 111.922 145.754C111.922 146.335 111.812 146.831 111.593 147.242C111.375 147.652 111.077 147.967 110.701 148.186C110.331 148.398 109.907 148.504 109.429 148.504ZM109.48 147.857C109.863 147.857 110.205 147.772 110.506 147.601C110.814 147.423 111.053 147.177 111.224 146.862C111.402 146.541 111.491 146.171 111.491 145.754C111.491 145.33 111.402 144.961 111.224 144.646C111.053 144.331 110.814 144.088 110.506 143.917C110.205 143.74 109.863 143.651 109.48 143.651C109.104 143.651 108.765 143.74 108.464 143.917C108.163 144.088 107.924 144.331 107.746 144.646C107.568 144.961 107.479 145.33 107.479 145.754C107.479 146.171 107.568 146.541 107.746 146.862C107.924 147.177 108.163 147.423 108.464 147.601C108.765 147.772 109.104 147.857 109.48 147.857ZM111.511 148.452V146.831L111.583 145.744L111.481 144.656V140.839H112.209V148.452H111.511ZM119.221 150.494C118.729 150.494 118.257 150.422 117.805 150.279C117.354 150.135 116.988 149.93 116.708 149.663L117.077 149.109C117.33 149.335 117.641 149.513 118.011 149.643C118.387 149.779 118.783 149.848 119.201 149.848C119.885 149.848 120.387 149.687 120.709 149.366C121.03 149.051 121.191 148.558 121.191 147.888V146.544L121.294 145.621L121.222 144.697V143.066H121.92V147.796C121.92 148.726 121.69 149.407 121.232 149.837C120.781 150.275 120.11 150.494 119.221 150.494ZM119.088 148.247C118.575 148.247 118.113 148.138 117.703 147.919C117.292 147.693 116.967 147.382 116.728 146.985C116.495 146.588 116.379 146.134 116.379 145.621C116.379 145.108 116.495 144.656 116.728 144.266C116.967 143.87 117.292 143.562 117.703 143.343C118.113 143.124 118.575 143.015 119.088 143.015C119.567 143.015 119.998 143.114 120.381 143.312C120.764 143.51 121.068 143.805 121.294 144.194C121.519 144.584 121.632 145.06 121.632 145.621C121.632 146.182 121.519 146.657 121.294 147.047C121.068 147.437 120.764 147.734 120.381 147.939C119.998 148.145 119.567 148.247 119.088 148.247ZM119.16 147.601C119.556 147.601 119.909 147.519 120.216 147.355C120.524 147.184 120.767 146.951 120.945 146.657C121.123 146.356 121.212 146.011 121.212 145.621C121.212 145.231 121.123 144.889 120.945 144.595C120.767 144.301 120.524 144.071 120.216 143.907C119.909 143.736 119.556 143.651 119.16 143.651C118.77 143.651 118.418 143.736 118.103 143.907C117.795 144.071 117.552 144.301 117.374 144.595C117.203 144.889 117.118 145.231 117.118 145.621C117.118 146.011 117.203 146.356 117.374 146.657C117.552 146.951 117.795 147.184 118.103 147.355C118.418 147.519 118.77 147.601 119.16 147.601ZM126.235 148.504C125.674 148.504 125.181 148.387 124.757 148.155C124.333 147.915 124.001 147.591 123.762 147.18C123.523 146.763 123.403 146.288 123.403 145.754C123.403 145.22 123.516 144.749 123.741 144.338C123.974 143.928 124.289 143.606 124.685 143.374C125.089 143.134 125.54 143.015 126.04 143.015C126.546 143.015 126.994 143.131 127.384 143.363C127.781 143.589 128.092 143.911 128.317 144.328C128.543 144.738 128.656 145.214 128.656 145.754C128.656 145.788 128.653 145.826 128.646 145.867C128.646 145.901 128.646 145.939 128.646 145.98H123.957V145.436H128.256L127.969 145.651C127.969 145.262 127.883 144.916 127.712 144.615C127.548 144.307 127.322 144.068 127.035 143.897C126.748 143.726 126.416 143.64 126.04 143.64C125.67 143.64 125.339 143.726 125.045 143.897C124.75 144.068 124.521 144.307 124.357 144.615C124.193 144.923 124.111 145.275 124.111 145.672V145.785C124.111 146.195 124.2 146.558 124.378 146.872C124.562 147.18 124.815 147.423 125.137 147.601C125.465 147.772 125.838 147.857 126.255 147.857C126.584 147.857 126.888 147.799 127.168 147.683C127.456 147.567 127.702 147.389 127.907 147.149L128.317 147.621C128.078 147.909 127.777 148.127 127.415 148.278C127.059 148.428 126.666 148.504 126.235 148.504ZM131.842 148.504C131.336 148.504 130.946 148.367 130.672 148.093C130.399 147.82 130.262 147.433 130.262 146.934V141.876H130.99V146.893C130.99 147.208 131.069 147.45 131.226 147.621C131.39 147.792 131.623 147.878 131.924 147.878C132.245 147.878 132.512 147.785 132.724 147.601L132.981 148.124C132.837 148.254 132.663 148.35 132.458 148.411C132.259 148.473 132.054 148.504 131.842 148.504ZM129.297 143.671V143.066H132.632V143.671H129.297ZM138.439 148.504C137.994 148.504 137.574 148.442 137.177 148.319C136.78 148.189 136.469 148.028 136.243 147.837L136.571 147.262C136.79 147.426 137.071 147.57 137.413 147.693C137.755 147.809 138.114 147.868 138.49 147.868C139.003 147.868 139.372 147.789 139.598 147.632C139.824 147.467 139.937 147.252 139.937 146.985C139.937 146.787 139.872 146.633 139.742 146.524C139.619 146.407 139.455 146.322 139.249 146.267C139.044 146.205 138.815 146.154 138.562 146.113C138.309 146.072 138.056 146.024 137.803 145.969C137.556 145.915 137.331 145.836 137.125 145.733C136.92 145.624 136.753 145.477 136.623 145.292C136.5 145.108 136.438 144.861 136.438 144.554C136.438 144.259 136.52 143.996 136.684 143.764C136.848 143.531 137.088 143.35 137.403 143.22C137.724 143.083 138.114 143.015 138.572 143.015C138.921 143.015 139.27 143.062 139.619 143.158C139.968 143.247 140.255 143.367 140.481 143.517L140.162 144.102C139.923 143.938 139.667 143.822 139.393 143.753C139.119 143.678 138.846 143.64 138.572 143.64C138.087 143.64 137.727 143.726 137.495 143.897C137.269 144.061 137.156 144.273 137.156 144.533C137.156 144.738 137.218 144.899 137.341 145.015C137.471 145.132 137.638 145.224 137.844 145.292C138.056 145.354 138.285 145.405 138.531 145.446C138.784 145.487 139.034 145.539 139.28 145.6C139.533 145.655 139.762 145.733 139.968 145.836C140.18 145.932 140.347 146.072 140.47 146.257C140.6 146.435 140.665 146.671 140.665 146.965C140.665 147.279 140.576 147.553 140.398 147.785C140.227 148.011 139.974 148.189 139.639 148.319C139.311 148.442 138.911 148.504 138.439 148.504ZM143.705 148.504C143.199 148.504 142.809 148.367 142.535 148.093C142.262 147.82 142.125 147.433 142.125 146.934V141.876H142.853V146.893C142.853 147.208 142.932 147.45 143.089 147.621C143.254 147.792 143.486 147.878 143.787 147.878C144.109 147.878 144.375 147.785 144.587 147.601L144.844 148.124C144.7 148.254 144.526 148.35 144.321 148.411C144.122 148.473 143.917 148.504 143.705 148.504ZM141.161 143.671V143.066H144.495V143.671H141.161ZM149.546 148.452V147.262L149.515 147.067V145.077C149.515 144.619 149.385 144.266 149.125 144.02C148.872 143.774 148.492 143.651 147.986 143.651C147.637 143.651 147.305 143.709 146.991 143.825C146.676 143.941 146.409 144.095 146.191 144.287L145.862 143.743C146.136 143.51 146.464 143.333 146.847 143.21C147.23 143.08 147.634 143.015 148.058 143.015C148.756 143.015 149.292 143.189 149.669 143.538C150.052 143.88 150.243 144.403 150.243 145.108V148.452H149.546ZM147.688 148.504C147.285 148.504 146.933 148.439 146.632 148.309C146.338 148.172 146.112 147.987 145.955 147.755C145.797 147.515 145.719 147.242 145.719 146.934C145.719 146.653 145.784 146.4 145.914 146.175C146.05 145.942 146.269 145.757 146.57 145.621C146.878 145.477 147.288 145.405 147.801 145.405H149.658V145.949H147.822C147.302 145.949 146.94 146.041 146.734 146.226C146.536 146.411 146.437 146.64 146.437 146.913C146.437 147.221 146.556 147.467 146.796 147.652C147.035 147.837 147.37 147.929 147.801 147.929C148.212 147.929 148.564 147.837 148.858 147.652C149.159 147.461 149.378 147.187 149.515 146.831L149.679 147.334C149.542 147.69 149.303 147.974 148.961 148.186C148.626 148.398 148.201 148.504 147.688 148.504ZM152.222 148.452V143.066H152.919V144.533L152.848 144.277C152.998 143.866 153.251 143.555 153.607 143.343C153.963 143.124 154.404 143.015 154.93 143.015V143.723C154.903 143.723 154.876 143.723 154.848 143.723C154.821 143.716 154.794 143.712 154.766 143.712C154.199 143.712 153.754 143.887 153.432 144.236C153.111 144.578 152.95 145.067 152.95 145.703V148.452H152.222ZM158.193 148.504C157.687 148.504 157.297 148.367 157.024 148.093C156.75 147.82 156.613 147.433 156.613 146.934V141.876H157.342V146.893C157.342 147.208 157.42 147.45 157.578 147.621C157.742 147.792 157.974 147.878 158.275 147.878C158.597 147.878 158.864 147.785 159.076 147.601L159.332 148.124C159.189 148.254 159.014 148.35 158.809 148.411C158.611 148.473 158.405 148.504 158.193 148.504ZM155.649 143.671V143.066H158.983V143.671H155.649ZM162.756 148.504C162.195 148.504 161.703 148.387 161.278 148.155C160.854 147.915 160.523 147.591 160.283 147.18C160.044 146.763 159.924 146.288 159.924 145.754C159.924 145.22 160.037 144.749 160.263 144.338C160.495 143.928 160.81 143.606 161.207 143.374C161.61 143.134 162.062 143.015 162.561 143.015C163.067 143.015 163.515 143.131 163.905 143.363C164.302 143.589 164.613 143.911 164.839 144.328C165.064 144.738 165.177 145.214 165.177 145.754C165.177 145.788 165.174 145.826 165.167 145.867C165.167 145.901 165.167 145.939 165.167 145.98H160.478V145.436H164.777L164.49 145.651C164.49 145.262 164.404 144.916 164.233 144.615C164.069 144.307 163.843 144.068 163.556 143.897C163.269 143.726 162.937 143.64 162.561 143.64C162.192 143.64 161.86 143.726 161.566 143.897C161.272 144.068 161.042 144.307 160.878 144.615C160.714 144.923 160.632 145.275 160.632 145.672V145.785C160.632 146.195 160.721 146.558 160.899 146.872C161.083 147.18 161.337 147.423 161.658 147.601C161.986 147.772 162.359 147.857 162.776 147.857C163.105 147.857 163.409 147.799 163.69 147.683C163.977 147.567 164.223 147.389 164.428 147.149L164.839 147.621C164.599 147.909 164.298 148.127 163.936 148.278C163.58 148.428 163.187 148.504 162.756 148.504ZM168.804 148.504C168.291 148.504 167.83 148.387 167.419 148.155C167.016 147.922 166.698 147.601 166.465 147.19C166.232 146.773 166.116 146.294 166.116 145.754C166.116 145.207 166.232 144.728 166.465 144.318C166.698 143.907 167.016 143.589 167.419 143.363C167.83 143.131 168.291 143.015 168.804 143.015C169.276 143.015 169.697 143.121 170.066 143.333C170.442 143.545 170.74 143.856 170.959 144.266C171.185 144.67 171.297 145.166 171.297 145.754C171.297 146.335 171.188 146.831 170.969 147.242C170.75 147.652 170.453 147.967 170.077 148.186C169.707 148.398 169.283 148.504 168.804 148.504ZM168.856 147.857C169.239 147.857 169.581 147.772 169.882 147.601C170.189 147.423 170.429 147.177 170.6 146.862C170.778 146.541 170.867 146.171 170.867 145.754C170.867 145.33 170.778 144.961 170.6 144.646C170.429 144.331 170.189 144.088 169.882 143.917C169.581 143.74 169.239 143.651 168.856 143.651C168.479 143.651 168.141 143.74 167.84 143.917C167.539 144.088 167.299 144.331 167.122 144.646C166.944 144.961 166.855 145.33 166.855 145.754C166.855 146.171 166.944 146.541 167.122 146.862C167.299 147.177 167.539 147.423 167.84 147.601C168.141 147.772 168.479 147.857 168.856 147.857ZM170.887 148.452V146.831L170.959 145.744L170.856 144.656V140.839H171.585V148.452H170.887Z" fill="#004737" fill-opacity="0.5"/>
<path fill-rule="evenodd" clip-rule="evenodd" d="M293.266 162.674H48.7363V162.14H293.266V162.674Z" fill="#E4E7EC"/>
<g filter="url(#filter1_d_153_18704)">
<path d="M48.7363 190.889C48.7363 187.112 51.7987 184.049 55.5763 184.049H286.426C290.204 184.049 293.266 187.112 293.266 190.889V200.897C293.266 204.674 290.204 207.737 286.426 207.737H55.5763C51.7987 207.737 48.7363 204.674 48.7363 200.897V190.889Z" fill="white" shape-rendering="crispEdges"/>
<path d="M49.0035 190.889C49.0035 187.259 51.9463 184.317 55.5763 184.317H286.426C290.056 184.317 292.999 187.259 292.999 190.889V200.897C292.999 204.527 290.056 207.47 286.426 207.47H55.5763C51.9463 207.47 49.0035 204.527 49.0035 200.897V190.889Z" stroke="#D0DDD8" stroke-width="0.534375" shape-rendering="crispEdges"/>
<path d="M57.7566 195.084H60.9201V195.623H57.7566V195.084ZM57.825 197.846H61.4245V198.393H57.1923V192.408H61.2963V192.955H57.825V197.846ZM65.0749 193.862C65.4397 193.862 65.7589 193.933 66.0325 194.075C66.3118 194.212 66.5284 194.423 66.6823 194.708C66.8419 194.993 66.9217 195.352 66.9217 195.785V198.393H66.3147V195.845C66.3147 195.372 66.195 195.016 65.9556 194.776C65.7219 194.531 65.3913 194.409 64.9638 194.409C64.6446 194.409 64.3653 194.474 64.1259 194.605C63.8922 194.731 63.7098 194.916 63.5787 195.161C63.4533 195.401 63.3906 195.691 63.3906 196.033V198.393H62.7835V193.904H63.3649V195.136L63.2709 194.905C63.4134 194.58 63.6414 194.326 63.9549 194.144C64.2684 193.956 64.6417 193.862 65.0749 193.862ZM69.9808 198.436C69.559 198.436 69.2341 198.322 69.0061 198.094C68.7781 197.866 68.6641 197.544 68.6641 197.128V192.913H69.2711V197.093C69.2711 197.356 69.3367 197.558 69.4678 197.701C69.6046 197.843 69.7984 197.914 70.0492 197.914C70.3171 197.914 70.5394 197.837 70.7161 197.683L70.9298 198.119C70.8101 198.228 70.6648 198.308 70.4938 198.359C70.3285 198.41 70.1575 198.436 69.9808 198.436ZM67.8604 194.409V193.904H70.6391V194.409H67.8604ZM73.7829 198.436C73.3155 198.436 72.9051 198.339 72.5517 198.145C72.1983 197.946 71.9218 197.675 71.7223 197.333C71.5228 196.985 71.4231 196.589 71.4231 196.144C71.4231 195.7 71.5171 195.307 71.7052 194.965C71.899 194.623 72.1612 194.355 72.4918 194.161C72.8281 193.961 73.2043 193.862 73.6204 193.862C74.0422 193.862 74.4156 193.958 74.7405 194.152C75.0711 194.34 75.3304 194.608 75.5185 194.956C75.7066 195.298 75.8007 195.694 75.8007 196.144C75.8007 196.173 75.7978 196.204 75.7921 196.238C75.7921 196.267 75.7921 196.298 75.7921 196.333H71.8848V195.879H75.4672L75.2278 196.059C75.2278 195.734 75.1566 195.446 75.0141 195.195C74.8773 194.939 74.6892 194.739 74.4498 194.597C74.2104 194.454 73.9339 194.383 73.6204 194.383C73.3126 194.383 73.0362 194.454 72.7911 194.597C72.546 194.739 72.355 194.939 72.2182 195.195C72.0814 195.452 72.013 195.745 72.013 196.076V196.17C72.013 196.512 72.0871 196.814 72.2353 197.076C72.3892 197.333 72.6001 197.535 72.868 197.683C73.1416 197.826 73.4523 197.897 73.8 197.897C74.0736 197.897 74.3272 197.849 74.5609 197.752C74.8003 197.655 75.0055 197.507 75.1765 197.307L75.5185 197.701C75.319 197.94 75.0682 198.122 74.7661 198.248C74.4697 198.373 74.142 198.436 73.7829 198.436ZM77.0363 198.393V193.904H77.6177V195.127L77.5579 194.913C77.6833 194.571 77.8942 194.312 78.1906 194.135C78.487 193.953 78.8546 193.862 79.2935 193.862V194.452C79.2707 194.452 79.2479 194.452 79.2251 194.452C79.2023 194.446 79.1795 194.443 79.1567 194.443C78.6836 194.443 78.3131 194.588 78.0452 194.879C77.7773 195.164 77.6434 195.572 77.6434 196.102V198.393H77.0363ZM82.7399 200.095C82.529 200.095 82.3266 200.06 82.1328 199.992C81.9447 199.924 81.7823 199.821 81.6455 199.684L81.9276 199.231C82.0416 199.339 82.1642 199.422 82.2953 199.479C82.4321 199.542 82.5831 199.573 82.7484 199.573C82.9479 199.573 83.1189 199.516 83.2614 199.402C83.4096 199.294 83.5493 199.1 83.6804 198.821L83.9711 198.162L84.0395 198.068L85.8863 193.904H86.4848L84.2361 198.932C84.1107 199.222 83.9711 199.453 83.8172 199.624C83.669 199.795 83.5065 199.915 83.3298 199.983C83.1531 200.057 82.9565 200.095 82.7399 200.095ZM83.9369 198.521L81.8678 193.904H82.5005L84.3302 198.025L83.9369 198.521ZM89.0442 198.436C88.611 198.436 88.2205 198.339 87.8728 198.145C87.5308 197.946 87.2601 197.675 87.0606 197.333C86.8611 196.985 86.7613 196.589 86.7613 196.144C86.7613 195.694 86.8611 195.298 87.0606 194.956C87.2601 194.614 87.5308 194.346 87.8728 194.152C88.2148 193.958 88.6053 193.862 89.0442 193.862C89.4888 193.862 89.8821 193.958 90.2241 194.152C90.5718 194.346 90.8425 194.614 91.0363 194.956C91.2358 195.298 91.3356 195.694 91.3356 196.144C91.3356 196.589 91.2358 196.985 91.0363 197.333C90.8425 197.675 90.5718 197.946 90.2241 198.145C89.8764 198.339 89.4831 198.436 89.0442 198.436ZM89.0442 197.897C89.3691 197.897 89.6569 197.826 89.9077 197.683C90.1585 197.535 90.3552 197.33 90.4977 197.068C90.6459 196.8 90.72 196.492 90.72 196.144C90.72 195.791 90.6459 195.483 90.4977 195.221C90.3552 194.959 90.1585 194.756 89.9077 194.614C89.6569 194.466 89.3719 194.392 89.0527 194.392C88.7335 194.392 88.4485 194.466 88.1977 194.614C87.9469 194.756 87.7474 194.959 87.5992 195.221C87.451 195.483 87.3769 195.791 87.3769 196.144C87.3769 196.492 87.451 196.8 87.5992 197.068C87.7474 197.33 87.9469 197.535 88.1977 197.683C88.4485 197.826 88.7307 197.897 89.0442 197.897ZM94.4303 198.436C94.0484 198.436 93.7149 198.365 93.4299 198.222C93.1449 198.08 92.9226 197.866 92.763 197.581C92.6091 197.296 92.5322 196.94 92.5322 196.512V193.904H93.1392V196.444C93.1392 196.922 93.2561 197.284 93.4898 197.53C93.7292 197.769 94.0626 197.889 94.4901 197.889C94.8036 197.889 95.0744 197.826 95.3024 197.701C95.5361 197.569 95.7128 197.381 95.8325 197.136C95.9579 196.891 96.0206 196.598 96.0206 196.256V193.904H96.6276V198.393H96.0462V197.162L96.1403 197.384C95.9978 197.715 95.7755 197.974 95.4734 198.162C95.177 198.345 94.8293 198.436 94.4303 198.436ZM98.3195 198.393V193.904H98.9009V195.127L98.841 194.913C98.9664 194.571 99.1773 194.312 99.4737 194.135C99.7701 193.953 100.138 193.862 100.577 193.862V194.452C100.554 194.452 100.531 194.452 100.508 194.452C100.485 194.446 100.463 194.443 100.44 194.443C99.9668 194.443 99.5963 194.588 99.3284 194.879C99.0605 195.164 98.9265 195.572 98.9265 196.102V198.393H98.3195ZM105.895 198.436C105.428 198.436 105.018 198.339 104.664 198.145C104.311 197.946 104.034 197.675 103.835 197.333C103.635 196.985 103.536 196.589 103.536 196.144C103.536 195.7 103.63 195.307 103.818 194.965C104.012 194.623 104.274 194.355 104.604 194.161C104.941 193.961 105.317 193.862 105.733 193.862C106.155 193.862 106.528 193.958 106.853 194.152C107.184 194.34 107.443 194.608 107.631 194.956C107.819 195.298 107.913 195.694 107.913 196.144C107.913 196.173 107.91 196.204 107.905 196.238C107.905 196.267 107.905 196.298 107.905 196.333H103.997V195.879H107.58L107.34 196.059C107.34 195.734 107.269 195.446 107.127 195.195C106.99 194.939 106.802 194.739 106.562 194.597C106.323 194.454 106.047 194.383 105.733 194.383C105.425 194.383 105.149 194.454 104.904 194.597C104.659 194.739 104.468 194.939 104.331 195.195C104.194 195.452 104.126 195.745 104.126 196.076V196.17C104.126 196.512 104.2 196.814 104.348 197.076C104.502 197.333 104.713 197.535 104.981 197.683C105.254 197.826 105.565 197.897 105.913 197.897C106.186 197.897 106.44 197.849 106.674 197.752C106.913 197.655 107.118 197.507 107.289 197.307L107.631 197.701C107.432 197.94 107.181 198.122 106.879 198.248C106.582 198.373 106.255 198.436 105.895 198.436ZM114.758 193.862C115.123 193.862 115.439 193.933 115.707 194.075C115.98 194.212 116.191 194.423 116.339 194.708C116.493 194.993 116.57 195.352 116.57 195.785V198.393H115.963V195.845C115.963 195.372 115.849 195.016 115.621 194.776C115.399 194.531 115.083 194.409 114.672 194.409C114.364 194.409 114.097 194.474 113.869 194.605C113.646 194.731 113.472 194.916 113.347 195.161C113.227 195.401 113.167 195.691 113.167 196.033V198.393H112.56V195.845C112.56 195.372 112.446 195.016 112.218 194.776C111.99 194.531 111.671 194.409 111.261 194.409C110.959 194.409 110.694 194.474 110.466 194.605C110.238 194.731 110.061 194.916 109.936 195.161C109.816 195.401 109.756 195.691 109.756 196.033V198.393H109.149V193.904H109.73V195.118L109.636 194.905C109.773 194.58 109.993 194.326 110.295 194.144C110.602 193.956 110.964 193.862 111.38 193.862C111.819 193.862 112.193 193.973 112.501 194.195C112.808 194.412 113.008 194.739 113.099 195.178L112.86 195.084C112.991 194.719 113.222 194.426 113.552 194.204C113.888 193.976 114.29 193.862 114.758 193.862ZM121.03 198.393V197.401L121.004 197.239V195.58C121.004 195.198 120.896 194.905 120.679 194.699C120.468 194.494 120.152 194.392 119.73 194.392C119.439 194.392 119.163 194.44 118.901 194.537C118.638 194.634 118.416 194.762 118.234 194.922L117.96 194.469C118.188 194.275 118.462 194.127 118.781 194.024C119.1 193.916 119.436 193.862 119.79 193.862C120.371 193.862 120.819 194.007 121.132 194.298C121.451 194.583 121.611 195.019 121.611 195.606V198.393H121.03ZM119.482 198.436C119.146 198.436 118.852 198.382 118.601 198.273C118.356 198.159 118.168 198.005 118.037 197.812C117.906 197.612 117.84 197.384 117.84 197.128C117.84 196.894 117.895 196.683 118.003 196.495C118.117 196.301 118.299 196.147 118.55 196.033C118.807 195.914 119.149 195.854 119.576 195.854H121.124V196.307H119.593C119.16 196.307 118.858 196.384 118.687 196.538C118.522 196.692 118.439 196.883 118.439 197.111C118.439 197.367 118.539 197.572 118.738 197.726C118.938 197.88 119.217 197.957 119.576 197.957C119.918 197.957 120.212 197.88 120.457 197.726C120.707 197.567 120.89 197.339 121.004 197.042L121.141 197.461C121.027 197.758 120.827 197.994 120.542 198.171C120.263 198.347 119.909 198.436 119.482 198.436ZM123.26 198.393V193.904H123.867V198.393H123.26ZM123.568 192.913C123.442 192.913 123.337 192.87 123.251 192.784C123.166 192.699 123.123 192.596 123.123 192.476C123.123 192.357 123.166 192.257 123.251 192.177C123.337 192.092 123.442 192.049 123.568 192.049C123.693 192.049 123.798 192.089 123.884 192.169C123.969 192.248 124.012 192.348 124.012 192.468C124.012 192.593 123.969 192.699 123.884 192.784C123.804 192.87 123.699 192.913 123.568 192.913ZM125.556 198.393V192.049H126.163V198.393H125.556Z" fill="#004737" fill-opacity="0.5"/>
</g>
<g filter="url(#filter2_d_153_18704)">
<rect x="48.7363" y="216.287" width="244.53" height="23.6875" rx="11.8438" fill="#002147"/>
<path d="M149.601 230.716C149.133 230.716 148.703 230.642 148.31 230.494C147.922 230.34 147.583 230.126 147.292 229.853C147.002 229.573 146.776 229.246 146.617 228.869C146.457 228.493 146.377 228.083 146.377 227.638C146.377 227.194 146.457 226.783 146.617 226.407C146.776 226.031 147.002 225.706 147.292 225.432C147.589 225.153 147.934 224.939 148.327 224.791C148.72 224.637 149.15 224.56 149.618 224.56C150.125 224.56 150.581 224.643 150.986 224.808C151.396 224.973 151.741 225.216 152.02 225.535L151.319 226.219C151.086 225.985 150.832 225.814 150.558 225.706C150.29 225.592 149.994 225.535 149.669 225.535C149.356 225.535 149.065 225.586 148.797 225.689C148.529 225.791 148.298 225.937 148.105 226.125C147.911 226.313 147.76 226.535 147.651 226.792C147.549 227.048 147.497 227.33 147.497 227.638C147.497 227.94 147.549 228.22 147.651 228.476C147.76 228.733 147.911 228.958 148.105 229.151C148.298 229.34 148.526 229.485 148.789 229.588C149.051 229.69 149.341 229.741 149.661 229.741C149.957 229.741 150.242 229.696 150.516 229.605C150.795 229.508 151.06 229.348 151.311 229.126L151.943 229.955C151.63 230.206 151.265 230.397 150.849 230.528C150.439 230.653 150.023 230.716 149.601 230.716ZM150.892 229.81V227.57H151.943V229.955L150.892 229.81ZM155.453 230.69C154.946 230.69 154.501 230.591 154.119 230.391C153.743 230.186 153.449 229.907 153.238 229.553C153.033 229.2 152.931 228.798 152.931 228.348C152.931 227.892 153.03 227.49 153.23 227.142C153.435 226.789 153.714 226.512 154.068 226.313C154.427 226.113 154.834 226.014 155.29 226.014C155.735 226.014 156.131 226.111 156.479 226.304C156.827 226.498 157.1 226.772 157.3 227.125C157.499 227.479 157.599 227.895 157.599 228.373C157.599 228.419 157.596 228.47 157.59 228.527C157.59 228.584 157.588 228.638 157.582 228.69H153.777V227.98H157.018L156.599 228.202C156.604 227.94 156.55 227.709 156.436 227.51C156.322 227.31 156.165 227.154 155.966 227.04C155.772 226.926 155.547 226.869 155.29 226.869C155.028 226.869 154.797 226.926 154.598 227.04C154.404 227.154 154.25 227.313 154.136 227.518C154.028 227.718 153.974 227.954 153.974 228.228V228.399C153.974 228.673 154.036 228.915 154.162 229.126C154.287 229.337 154.464 229.499 154.692 229.613C154.92 229.727 155.182 229.784 155.479 229.784C155.735 229.784 155.966 229.744 156.171 229.664C156.376 229.585 156.559 229.459 156.718 229.288L157.291 229.947C157.086 230.186 156.827 230.371 156.513 230.502C156.205 230.628 155.852 230.69 155.453 230.69ZM160.344 230.69C159.843 230.69 159.455 230.562 159.181 230.306C158.908 230.044 158.771 229.659 158.771 229.151V225.056H159.84V229.126C159.84 229.342 159.894 229.511 160.002 229.63C160.116 229.75 160.273 229.81 160.472 229.81C160.712 229.81 160.911 229.747 161.071 229.622L161.37 230.383C161.245 230.485 161.091 230.562 160.908 230.614C160.726 230.665 160.538 230.69 160.344 230.69ZM158.019 226.954V226.099H161.062V226.954H158.019ZM166.023 230.69C165.641 230.69 165.273 230.642 164.92 230.545C164.572 230.443 164.296 230.32 164.091 230.177L164.501 229.365C164.706 229.496 164.951 229.605 165.236 229.69C165.521 229.776 165.806 229.818 166.091 229.818C166.428 229.818 166.67 229.773 166.818 229.682C166.972 229.59 167.049 229.468 167.049 229.314C167.049 229.189 166.998 229.094 166.895 229.032C166.792 228.963 166.659 228.912 166.493 228.878C166.328 228.844 166.143 228.812 165.937 228.784C165.738 228.755 165.536 228.718 165.33 228.673C165.131 228.621 164.949 228.55 164.783 228.459C164.618 228.362 164.484 228.234 164.381 228.074C164.279 227.915 164.227 227.704 164.227 227.441C164.227 227.151 164.31 226.9 164.475 226.689C164.641 226.472 164.872 226.307 165.168 226.193C165.47 226.073 165.826 226.014 166.237 226.014C166.545 226.014 166.855 226.048 167.169 226.116C167.482 226.185 167.742 226.282 167.947 226.407L167.536 227.219C167.32 227.088 167.1 227 166.878 226.954C166.661 226.903 166.445 226.877 166.228 226.877C165.903 226.877 165.661 226.926 165.501 227.023C165.348 227.119 165.271 227.242 165.271 227.39C165.271 227.527 165.322 227.63 165.424 227.698C165.527 227.766 165.661 227.821 165.826 227.86C165.992 227.9 166.174 227.935 166.374 227.963C166.579 227.986 166.781 228.023 166.981 228.074C167.18 228.125 167.362 228.197 167.528 228.288C167.699 228.373 167.836 228.496 167.938 228.656C168.041 228.815 168.092 229.023 168.092 229.28C168.092 229.565 168.007 229.813 167.836 230.024C167.67 230.234 167.434 230.4 167.126 230.519C166.818 230.633 166.45 230.69 166.023 230.69ZM170.731 230.69C170.229 230.69 169.842 230.562 169.568 230.306C169.295 230.044 169.158 229.659 169.158 229.151V225.056H170.227V229.126C170.227 229.342 170.281 229.511 170.389 229.63C170.503 229.75 170.66 229.81 170.859 229.81C171.099 229.81 171.298 229.747 171.458 229.622L171.757 230.383C171.632 230.485 171.478 230.562 171.295 230.614C171.113 230.665 170.925 230.69 170.731 230.69ZM168.405 226.954V226.099H171.449V226.954H168.405ZM175.449 230.631V229.707L175.389 229.511V227.895C175.389 227.581 175.295 227.339 175.107 227.168C174.919 226.991 174.634 226.903 174.252 226.903C173.996 226.903 173.742 226.943 173.491 227.023C173.246 227.102 173.038 227.213 172.867 227.356L172.448 226.578C172.693 226.39 172.984 226.25 173.32 226.159C173.662 226.062 174.016 226.014 174.38 226.014C175.042 226.014 175.552 226.173 175.911 226.492C176.276 226.806 176.458 227.293 176.458 227.954V230.631H175.449ZM174.013 230.69C173.671 230.69 173.372 230.633 173.115 230.519C172.859 230.4 172.659 230.237 172.517 230.032C172.38 229.821 172.311 229.585 172.311 229.322C172.311 229.066 172.371 228.835 172.491 228.63C172.616 228.425 172.819 228.262 173.098 228.143C173.377 228.023 173.748 227.963 174.209 227.963H175.535V228.673H174.286C173.922 228.673 173.676 228.733 173.551 228.852C173.426 228.966 173.363 229.109 173.363 229.28C173.363 229.474 173.44 229.627 173.594 229.741C173.748 229.855 173.961 229.912 174.235 229.912C174.497 229.912 174.731 229.853 174.936 229.733C175.147 229.613 175.298 229.436 175.389 229.203L175.569 229.844C175.466 230.112 175.281 230.32 175.013 230.468C174.751 230.616 174.417 230.69 174.013 230.69ZM177.83 230.631V226.065H178.847V227.322L178.727 226.954C178.864 226.646 179.078 226.413 179.369 226.253C179.665 226.093 180.033 226.014 180.472 226.014V227.031C180.426 227.02 180.383 227.014 180.343 227.014C180.303 227.008 180.264 227.005 180.224 227.005C179.819 227.005 179.497 227.125 179.258 227.365C179.018 227.598 178.898 227.949 178.898 228.416V230.631H177.83ZM183.264 230.69C182.762 230.69 182.375 230.562 182.101 230.306C181.827 230.044 181.691 229.659 181.691 229.151V225.056H182.759V229.126C182.759 229.342 182.813 229.511 182.922 229.63C183.036 229.75 183.193 229.81 183.392 229.81C183.631 229.81 183.831 229.747 183.991 229.622L184.29 230.383C184.164 230.485 184.01 230.562 183.828 230.614C183.646 230.665 183.458 230.69 183.264 230.69ZM180.938 226.954V226.099H183.982V226.954H180.938ZM187.165 230.69C186.657 230.69 186.213 230.591 185.831 230.391C185.455 230.186 185.161 229.907 184.95 229.553C184.745 229.2 184.642 228.798 184.642 228.348C184.642 227.892 184.742 227.49 184.942 227.142C185.147 226.789 185.426 226.512 185.78 226.313C186.139 226.113 186.546 226.014 187.002 226.014C187.447 226.014 187.843 226.111 188.191 226.304C188.538 226.498 188.812 226.772 189.012 227.125C189.211 227.479 189.311 227.895 189.311 228.373C189.311 228.419 189.308 228.47 189.302 228.527C189.302 228.584 189.299 228.638 189.294 228.69H185.489V227.98H188.729L188.31 228.202C188.316 227.94 188.262 227.709 188.148 227.51C188.034 227.31 187.877 227.154 187.678 227.04C187.484 226.926 187.259 226.869 187.002 226.869C186.74 226.869 186.509 226.926 186.31 227.04C186.116 227.154 185.962 227.313 185.848 227.518C185.74 227.718 185.686 227.954 185.686 228.228V228.399C185.686 228.673 185.748 228.915 185.874 229.126C185.999 229.337 186.176 229.499 186.404 229.613C186.632 229.727 186.894 229.784 187.19 229.784C187.447 229.784 187.678 229.744 187.883 229.664C188.088 229.585 188.271 229.459 188.43 229.288L189.003 229.947C188.798 230.186 188.538 230.371 188.225 230.502C187.917 230.628 187.564 230.69 187.165 230.69ZM192.27 230.69C191.831 230.69 191.435 230.594 191.081 230.4C190.734 230.2 190.46 229.927 190.26 229.579C190.061 229.231 189.961 228.821 189.961 228.348C189.961 227.875 190.061 227.464 190.26 227.117C190.46 226.769 190.734 226.498 191.081 226.304C191.435 226.111 191.831 226.014 192.27 226.014C192.652 226.014 192.994 226.099 193.296 226.27C193.598 226.435 193.837 226.689 194.014 227.031C194.191 227.373 194.279 227.812 194.279 228.348C194.279 228.878 194.193 229.317 194.022 229.664C193.851 230.006 193.615 230.263 193.313 230.434C193.011 230.605 192.663 230.69 192.27 230.69ZM192.398 229.776C192.654 229.776 192.882 229.719 193.082 229.605C193.287 229.491 193.45 229.325 193.569 229.109C193.695 228.892 193.757 228.638 193.757 228.348C193.757 228.051 193.695 227.798 193.569 227.587C193.45 227.37 193.287 227.205 193.082 227.091C192.882 226.977 192.654 226.92 192.398 226.92C192.141 226.92 191.911 226.977 191.705 227.091C191.506 227.205 191.343 227.37 191.218 227.587C191.098 227.798 191.038 228.051 191.038 228.348C191.038 228.638 191.098 228.892 191.218 229.109C191.343 229.325 191.506 229.491 191.705 229.605C191.911 229.719 192.141 229.776 192.398 229.776ZM193.783 230.631V229.553L193.826 228.339L193.74 227.125V224.287H194.8V230.631H193.783Z" fill="#FBF8E9"/>
</g>
</g>
</g>
<defs>
<filter id="filter0_bdd_153_18704" x="0.00157356" y="0.427742" width="342" height="293.264" filterUnits="userSpaceOnUse" color-interpolation-filters="sRGB">
<feFlood flood-opacity="0" result="BackgroundImageFix"/>
<feGaussianBlur in="BackgroundImageFix" stdDeviation="11.3999"/>
<feComposite in2="SourceAlpha" operator="in" result="effect1_backgroundBlur_153_18704"/>
<feColorMatrix in="SourceAlpha" type="matrix" values="0 0 0 0 0 0 0 0 0 0 0 0 0 0 0 0 0 0 127 0" result="hardAlpha"/>
<feOffset dy="4.55996"/>
<feGaussianBlur stdDeviation="13.6799"/>
<feComposite in2="hardAlpha" operator="out"/>
<feColorMatrix type="matrix" values="0 0 0 0 0.301961 0 0 0 0 0.890196 0 0 0 0 0.360784 0 0 0 0.12 0"/>
<feBlend mode="normal" in2="effect1_backgroundBlur_153_18704" result="effect2_dropShadow_153_18704"/>
<feColorMatrix in="SourceAlpha" type="matrix" values="0 0 0 0 0 0 0 0 0 0 0 0 0 0 0 0 0 0 127 0" result="hardAlpha"/>
<feOffset dy="4.55996"/>
<feGaussianBlur stdDeviation="2.27998"/>
<feComposite in2="hardAlpha" operator="out"/>
<feColorMatrix type="matrix" values="0 0 0 0 0 0 0 0 0 0 0 0 0 0 0 0 0 0 0.04 0"/>
<feBlend mode="normal" in2="effect2_dropShadow_153_18704" result="effect3_dropShadow_153_18704"/>
<feBlend mode="normal" in="SourceGraphic" in2="effect3_dropShadow_153_18704" result="shape"/>
</filter>
<filter id="filter1_d_153_18704" x="47.6676" y="183.515" width="246.668" height="25.825" filterUnits="userSpaceOnUse" color-interpolation-filters="sRGB">
<feFlood flood-opacity="0" result="BackgroundImageFix"/>
<feColorMatrix in="SourceAlpha" type="matrix" values="0 0 0 0 0 0 0 0 0 0 0 0 0 0 0 0 0 0 127 0" result="hardAlpha"/>
<feOffset dy="0.534375"/>
<feGaussianBlur stdDeviation="0.534375"/>
<feComposite in2="hardAlpha" operator="out"/>
<feColorMatrix type="matrix" values="0 0 0 0 0.0627451 0 0 0 0 0.0941176 0 0 0 0 0.156863 0 0 0 0.05 0"/>
<feBlend mode="normal" in2="BackgroundImageFix" result="effect1_dropShadow_153_18704"/>
<feBlend mode="normal" in="SourceGraphic" in2="effect1_dropShadow_153_18704" result="shape"/>
</filter>
<filter id="filter2_d_153_18704" x="47.6676" y="215.752" width="246.668" height="25.825" filterUnits="userSpaceOnUse" color-interpolation-filters="sRGB">
<feFlood flood-opacity="0" result="BackgroundImageFix"/>
<feColorMatrix in="SourceAlpha" type="matrix" values="0 0 0 0 0 0 0 0 0 0 0 0 0 0 0 0 0 0 127 0" result="hardAlpha"/>
<feOffset dy="0.534375"/>
<feGaussianBlur stdDeviation="0.534375"/>
<feComposite in2="hardAlpha" operator="out"/>
<feColorMatrix type="matrix" values="0 0 0 0 0.0627451 0 0 0 0 0.0941176 0 0 0 0 0.156863 0 0 0 0.05 0"/>
<feBlend mode="normal" in2="BackgroundImageFix" result="effect1_dropShadow_153_18704"/>
<feBlend mode="normal" in="SourceGraphic" in2="effect1_dropShadow_153_18704" result="shape"/>
</filter>
<clipPath id="clip0_153_18704">
<rect x="27.3613" y="23.2275" width="287.28" height="238.545" rx="10.6875" fill="white"/>
</clipPath>
</defs>
</svg>
